<svg xmlns="http://www.w3.org/2000/svg" viewBox="0 0 55 54">
  <path d="M37.5 37.4c-2-1.9-4.5-3.1-7.2-3.7-.6-.1-.9-.7-.8-1.2.1-.6.7-.9 1.2-.8 3 .6 5.9 2.1 8.1 4.2.4.4.4 1 .1 1.5-.2.2-.5.3-.8.3-.1 0-.4-.1-.6-.3zM1 27c-.6 0-1-.5-1-1 0-.6.5-1 1-1h4.4c.6 0 1 .5 1 1 0 .6-.5 1-1 1H1zm0 5.5c.6 0 1.1.5 1.1 1 0 .6-.5 1-1 1-.6 0-1-.5-1-1-.1-.6.4-1 .9-1zm45.8-8c-.1-4.6-2.5-7.5-5.6-10.6-2.8-2.9-4.7-5.9-4.7-10 0-1.3 2-1.3 2.1 0 .1 4.4 2.7 7 5.6 10 2.9 3 4.7 6.3 4.7 10.6 0 1.3-2 1.3-2.1 0zm-22.4-9.4c.9 1-.5 2.4-1.5 1.5-2.7-2.8-4.4-5.8-4.5-9.8 0-1.3 2-1.3 2.1 0 .1 3.4 1.6 5.9 3.9 8.3zM35.1 19c-1.5-2.6-3.7-4.6-5.4-7.1-2.2-3.3-3.2-7-3.2-11 0-1.3 2-1.3 2.1 0 0 3.9 1.1 7.4 3.3 10.5 1.6 2.2 3.6 4.1 5 6.5.7 1.2-1.1 2.3-1.8 1.1zm18.6 28.4c.6 0 1 .5 1 1 0 .6-.5 1-1 1H44c-.5 2.6-2.7 4.5-5.4 4.5s-5-1.9-5.4-4.5H21.6c-.5 2.6-2.7 4.5-5.4 4.5s-5-2-5.4-4.5H1c-.6 0-1-.5-1-1 0-.6.5-1 1-1h9.6c.5-2.6 2.7-4.5 5.4-4.5s5 1.9 5.4 4.5H33c.5-2.6 2.7-4.5 5.4-4.5s5 1.9 5.4 4.5h4.8C48.1 36 38.6 27 27.1 27c-6.2 0-11.9 2.6-15.9 7-.1.1-.2.3-.3.4C8.7 37 7 40.1 6.2 43.6c-.1.6-.7.9-1.2.8-.6-.1-.9-.7-.8-1.2.7-3.2 2.1-6.1 3.9-8.6h-3c-.6 0-1-.5-1-1 0-.6.5-1 1-1h4.7c2.1-2.3 4.7-4.2 7.6-5.5h-7.1c-.6 0-1-.5-1-1 0-.6.5-1 1-1h15.8v-1.7c0-.6.5-1 1-1s1 .5 1 1V25c12.2.5 22 10.3 22.5 22.5h3.1zm-15.1 4.5c1.9 0 3.5-1.6 3.5-3.5s-1.6-3.5-3.5-3.5-3.5 1.6-3.5 3.5 1.6 3.5 3.5 3.5zm-22.5 0c1.9 0 3.5-1.6 3.5-3.5S18 45 16.1 45s-3.5 1.6-3.5 3.5 1.6 3.4 3.5 3.4z"/>
</svg>