<svg
    xmlns="http://www.w3.org/2000/svg"
    viewBox="0 0 360 402"
    id="vector">
    <path
        id="path"
        d="M 356.033 442.1 C 391.212 432.802 422.394 404.103 436.263 368.107 C 459.128 308.765 473.371 241.012 460.089 167.761 C 449.869 111.421 412.754 71.532 348.215 48.119 C 298.814 30.202 164.12 4.471 75.632 13.593 C -9.779 22.387 -44.187 70.86 -61.442 123.249 C -84.137 192.176 -96.327 257.644 -67.864 338.699 C -34.267 434.369 9.469 449.755 52.694 458.198 C 181.813 483.407 312.202 453.685 356.033 442.1"
        fill="#e4e3e3"
        fill-opacity="1"
        fill-rule="evenodd"/>
    <path
        id="path_1"
        d="M 244.422 6.692 C 289.122 13.043 314.456 19.749 373.735 39.21 C 375.309 39.727 376.167 41.422 375.65 42.996 C 375.133 44.57 373.438 45.428 371.864 44.911 C 312.891 25.551 287.855 18.924 243.578 12.632 C 241.938 12.399 240.797 10.88 241.03 9.24 C 241.263 7.6 242.782 6.459 244.422 6.692 Z M 231.5 3.662 C 233.433 3.662 235 5.229 235 7.162 C 235 9.095 233.433 10.662 231.5 10.662 C 229.567 10.662 228 9.095 228 7.162 C 228 5.229 229.567 3.662 231.5 3.662 Z M 218.5 1.662 C 220.433 1.662 222 3.229 222 5.162 C 222 7.095 220.433 8.662 218.5 8.662 C 216.567 8.662 215 7.095 215 5.162 C 215 3.229 216.567 1.662 218.5 1.662 Z M 205.5 0.662 C 207.433 0.662 209 2.229 209 4.162 C 209 6.095 207.433 7.662 205.5 7.662 C 203.567 7.662 202 6.095 202 4.162 C 202 2.229 203.567 0.662 205.5 0.662 Z"
        fill="#e4e3e3"/>
</svg>
