<svg xmlns="http://www.w3.org/2000/svg" width="72" height="24" viewBox="0 0 72 24">
    <g fill="none">
        <path fill="#2E3897" d="M34.2 14.77l-.79 3.96c-.35 1.637-1.32 2.68-3.274 2.68-2.269 0-2.869-1.408-2.372-3.394.703-2.809 3-3.643 6.458-3.272m3.573-5.662l-2.439.19-.763 3.879c-.922-.06-1.211-.06-2.297-.06-3.387 0-6.36 1.407-7.14 4.756-.703 3.017 1.01 5.357 4.751 5.357 3.742 0 5.498-1.997 6.093-4.806l1.795-9.316zM11.602 14.935c-3.54-.322-6.578 0-6.633 1.172-.06 1.806 5.831.257 5.716 3.53-.169 4.908-8.378 3.774-10.412 3.152l.365-1.445c3.507.545 7.2.6 7.282-1.331.087-2.051-5.847-.208-5.705-3.535.103-2.476 3.818-3.818 9.878-2.923l-.491 1.38zM21.136 18.25c-.397 1.922-2.085 3.303-4.047 3.312-2.007 0-2.913-1.167-2.378-3.311.4-1.94 2.084-3.348 4.064-3.398 1.92 0 2.869 1.363 2.356 3.398m-2.04-5.067c-3.518 0-6.35 2.04-7.042 5.067-.693 3.027 1.195 5.067 4.713 5.067s6.349-2.045 7.042-5.067c.692-3.022-1.2-5.067-4.713-5.067M59.733 23.27h-3.06c-3.047-3.01-5.734-6.36-8.008-9.988h2.242c2.477 3.42 8.826 9.987 8.826 9.987M62.94 3.431L64.347.496 64.745 3.48 67.615 2.476 65.613 5.045 67.784 6.731 64.882 6.955 64.724 10.053 63.109 7.762 60.742 9.949 61.625 6.873 58.833 6.485 61.555 4.942 60.436 2.285zM68.902 18.284c-.4 1.953-2.114 3.36-4.107 3.37-2.04 0-2.962-1.183-2.411-3.37.403-1.973 2.116-3.405 4.129-3.453 1.952 0 2.912 1.39 2.394 3.453M66.83 13.14c-3.573 0-6.447 2.067-7.15 5.144-.704 3.076 1.21 5.17 4.783 5.17 3.573 0 6.447-2.089 7.156-5.17.71-3.082-1.216-5.144-4.794-5.144"/>
        <path fill="red" d="M46.364 22.418c5.776-3.202 10.794-8.133 14.345-12.398C58.14 18 51.982 22.364 46.364 22.418"/>
        <path fill="#2E3897" d="M44.062 14.673c1.09 0 1.707.398 1.707 1.167 0 2.035-3.97 1.904-5.722 1.55.626-1.668 2.234-2.76 4.015-2.728m4.085 1.058c0-1.478-1.178-2.558-3.818-2.558-4.33 0-7.145 2.809-7.145 6.289 0 2.247 1.865 4.113 5.274 4.113 1.386.008 2.744-.39 3.906-1.146-2.984.322-6.66 0-6.66-3.19v-.383c4.074.846 8.438-.18 8.438-3.109"/>
    </g>
</svg>
