
<svg xmlns="http://www.w3.org/2000/svg" width="43" height="24" fill-rule="evenodd" viewBox="0 0 60 24"><path fill="#ff2635" d="M36.042 6.26l6.74 6.68-5.893 5.842h-6.63V12l5.78-5.738zm-3.358 5.908c-.253 0-.482.053-.688.16a1.6 1.6 0 0 0-.545.484v-.566h-.4v4.207h.4v-1.656c.168.202.355.354.562.456s.435.153.683.153c.44 0 .814-.158 1.125-.475a1.58 1.58 0 0 0 .467-1.153 1.56 1.56 0 0 0-.47-1.139 1.542 1.542 0 0 0-1.134-.472zm6.375 0a.847.847 0 0 0-.611.232.776.776 0 0 0-.242.583.79.79 0 0 0 .152.479c.1.14.292.28.572.424.262.132.43.242.505.33a.47.47 0 0 1-.057.662.59.59 0 0 1-.41.153c-.23 0-.446-.114-.65-.342l-.252.283a1.185 1.185 0 0 0 .919.436.922.922 0 0 0 .672-.264.86.86 0 0 0 .27-.642.8.8 0 0 0-.158-.485c-.107-.14-.3-.288-.607-.44-.245-.125-.405-.233-.48-.326a.44.44 0 0 1-.115-.286c0-.113.047-.212.14-.297a.477.477 0 0 1 .334-.127c.204 0 .413.102.627.308l.257-.263c-.3-.278-.578-.416-.864-.416zm-3.44.08h-.4v1.484c0 .438.05.765.15.984s.252.387.454.5.456.182.76.182.554-.06.754-.183.352-.3.452-.505.15-.536.15-.96v-1.512h-.408v1.438c0 .385-.02.637-.06.756a.82.82 0 0 1-.322.42.98.98 0 0 1-.568.16c-.224 0-.416-.054-.577-.163a.809.809 0 0 1-.327-.448c-.04-.132-.058-.374-.058-.725v-1.438zm-.712-1.2h-.4v4.27h.4v-4.27zM32.75 12.57a1.25 1.25 0 0 1 .63.165c.192.1.345.265.46.464a1.253 1.253 0 0 1-.001 1.262 1.244 1.244 0 0 1-1.082.637 1.3 1.3 0 0 1-.637-.166 1.17 1.17 0 0 1-.463-.45 1.27 1.27 0 0 1-.162-.64c0-.362.12-.665.363-.908s.54-.364.893-.364z"/><path fill="#000" d="M15.685 2.83c1.412 0 2.56.464 3.444 1.393s1.327 2.156 1.327 3.68l-.008.44H13.22c.105.656.383 1.177.837 1.564s1.03.58 1.734.58c.84 0 1.563-.302 2.167-.906h.52l1.666-.002c0 .485-.3.917-.3.917-.473.69-1.04 1.2-1.698 1.53s-1.442.495-2.348.495c-1.407 0-2.552-.456-3.436-1.368-.813-.84-1.253-1.872-1.318-3.1l-1.512 4.468H8.176L6.34 7.24l-1.9 5.283H3.1L0 3.25h2.113l1.73 5.274 1.86-5.274h1.292l1.828 5.215 1.732-5.215h2.127l-.34.998a5.07 5.07 0 0 1 .026-.026c.88-.93 1.986-1.394 3.316-1.394zM22.746 0v4.064c.404-.418.84-.732 1.31-.94s.97-.314 1.505-.314c1.16 0 2.148.455 2.96 1.364s1.22 2.077 1.22 3.502c0 1.373-.42 2.522-1.26 3.446s-1.835 1.386-2.986 1.386c-.512 0-1-.095-1.43-.284s-.88-.5-1.317-.93v.975H20.53V0h2.216zm2.348 4.946c-.704 0-1.287.25-1.75.746s-.696 1.147-.696 1.95c0 .82.232 1.482.695 1.988a2.27 2.27 0 0 0 1.75.758 2.23 2.23 0 0 0 1.722-.771c.466-.514.7-1.17.7-1.967 0-.79-.23-1.44-.687-1.945s-1.036-.76-1.734-.76zm-9.298-.16c-.627 0-1.177.18-1.65.543-.298.225-.573.624-.826 1.194h4.878a2.32 2.32 0 0 0-.879-1.254 2.501 2.501 0 0 0-1.523-.483z"/><path fill="#f7ba00" d="M16.046 12a4.04 4.04 0 0 1 1.542.294c.48.197.925.49 1.333.884v-.955h1.885v8.658H18.92v-.916c-.447.404-.896.694-1.346.872s-.937.266-1.462.266c-1.18 0-2.2-.433-3.06-1.3a4.312 4.312 0 0 1-1.063-1.724 4.43 4.43 0 0 1-1.053 1.885c-.825.885-1.802 1.328-2.932 1.328-.503 0-.97-.09-1.405-.272s-.865-.478-1.293-.9V24H3.13V12.227h2.177v.975c.396-.4.824-.7 1.285-.902s.953-.3 1.478-.3c1.14 0 2.1.436 2.907 1.308.464.507.793 1.097.987 1.77a4.22 4.22 0 0 1 1.048-1.797c.832-.854 1.844-1.28 3.034-1.28zm7.047 0l2.317 5.513L27.967 12h2.294l-5.587 12h-2.31l1.834-3.87-3.4-8.13h2.286zm-15.48 2.047c-.692 0-1.265.238-1.72.715s-.682 1.1-.682 1.868c0 .785.227 1.42.682 1.904s1.028.727 1.72.727c.668 0 1.232-.246 1.7-.74s.686-1.12.686-1.884c0-.758-.225-1.38-.674-1.864s-1.018-.727-1.703-.727zm8.9-.042c-.71 0-1.297.238-1.765.713s-.703 1.083-.703 1.826c0 .748.238 1.363.715 1.846s1.064.724 1.76.724c.72 0 1.317-.237 1.8-.712s.71-1.097.71-1.866c0-.754-.237-1.363-.7-1.83s-1.074-.7-1.8-.7z"/></svg>