<svg xmlns="http://www.w3.org/2000/svg" viewBox="0 0 127 79"><g transform="translate(0 -1)"><defs><filter id="A" filterUnits="userSpaceOnUse" x=".9" y="-28.3" width="125.8" height="108"><feColorMatrix values="1 0 0 0 0 0 1 0 0 0 0 0 1 0 0 0 0 0 1 0"/></filter></defs><mask maskUnits="userSpaceOnUse" x=".9" y="-28.3" width="125.8" height="108" id="B"><path d="M.3.7h127v79H.3z" fill="#fff" filter="url(#A)"/></mask><g mask="url(#B)"><path d="M90.7 74.7c13.7-3.2 28-9.2 32.2-25 4.5-16.6 5.7-39.5 2.4-56.8-3.4-16.5-26-19.3-37.4-20.5a160 160 0 0 0-32.5-.1C39.4-26.2 20-23 9-11.8-1.8-.6 0 29.8 4 44.4c11.8 44 53.7 37.8 86.8 30.3z"/></g><defs><filter id="C" filterUnits="userSpaceOnUse" x="30.6" y="18" width="67.5" height="39.5"><feColorMatrix values="1 0 0 0 0 0 1 0 0 0 0 0 1 0 0 0 0 0 1 0"/></filter></defs><mask maskUnits="userSpaceOnUse" x="30.6" y="18" width="67.5" height="39.5" id="D"><path d="M.3.7h127v79H.3z" fill="#fff" filter="url(#C)"/></mask><g mask="url(#D)"><path d="M37 29c-2.2.4-4.5.4-5-5-.2-1.4-.3-3.5.7-4.7 1-1.2 3-1.3 4-1.3.6 0 1.6.1 2.3 1 .4.5 1 1.2 1 2 .1 1 .6 5.8-.3 7-.4.5-1.6 1-2.5 1zm15.3-.4c-1.3-.4-1.5-2.3-1.4-3.5L51 21c.1-.5.4-2 .8-2.2 2.5-1.2 6.7-1 7 2.4a28 28 0 0 1-.1 5.8c-.1 1-.7 2-1.8 2.3-1.4.2-3.3 0-4.8-.5zm21.7.6c-1.2 0-3.5-.5-4-1.7s-.5-3-.3-4.2c.2-1 .3-1.8.7-2.7.3-1 1-2.8 2.3-2.7 1.4.1 3 .7 4.2 1.5 1 .7 1.3 2 1.2 3.2-.1 3-.5 6.6-4 6.6zm20.4-.5c-2 1-5.6.8-6-1.7-.3-1.6-1-4.8 0-6.6.3-.7 1.3-2.2 3.7-2.5 1.8-.2 2.2.3 3 2 1 2.3 2.2 7.4-.7 8.8zM31 57.2v-22h11.7l-.7 3.2h-7.5v7h6l-.7 3.2h-5.2v8.7H31zM95 47l3.5 10.3H95l-3-8.7h-1.7v8.7h-3.5v-22h3.5v10H92l2.8-10h3.6L95 47zm-15.7-3.3c0 2-.8 3.5-2.4 4.3l3.3 9.3h-3.6l-3-8.7h-2v8.7h-3.5v-22H74c3.6 0 5.5 1.7 5.5 5v3.5zm-3.5-.5v-2.5c0-1.6-.6-2.2-2-2.2h-2v7h2c1.5 0 2-.6 2-2.2zM55 35c3.6 0 5.5 1.7 5.5 5v13c0 3.2-2 5-5.5 5H55c-3.6 0-5.5-1.7-5.5-5v-13c0-3.2 2-5 5.5-5h.2zm2 17V40.4c0-1.6-.6-2.3-2-2.3s-2 .7-2 2.3V52c0 1.6.6 2.3 2 2.3 1.6 0 2-.7 2-2.3z" fill="#fefefe"/></g></g></svg>