<?xml version="1.0" encoding="UTF-8"?>
<svg width="60px" height="24px" viewBox="0 0 60 24" version="1.1" xmlns="http://www.w3.org/2000/svg" xmlns:xlink="http://www.w3.org/1999/xlink">
    <!-- Generator: Sketch 61.1 (89650) - https://sketch.com -->
    <title>02_Logo_webpay_oneclick</title>
    <desc>Created with Sketch.</desc>
    <g id="Symbols" stroke="none" stroke-width="1" fill="none" fill-rule="evenodd">
        <g id="Rediseño-/-Footer-/-Sello-blanco-Copy" transform="translate(-1119.000000, -62.000000)">
            <g id="02_Logo_webpay_oneclick" transform="translate(1119.000000, 62.000000)">
                <g id="Group">
                    <g fill="#000000" fill-rule="nonzero">
                        <polygon id="Path" points="4.87440134 12.8300171 6.71700891 6.61307754 8.53932804 12.8300171 9.96024312 12.8300171 13.4520549 3.23402722 11.0150555 3.23402722 9.2107865 9.08895358 7.65629479 3.23402722 5.83411061 3.23402722 4.24114654 9.08895358 2.47586238 3.23402722 0 3.23402722 3.47391024 12.8300171"></polygon>
                        <path d="M21.9123456,7.89870146 C21.9123456,5.1347363 19.6671468,2.85119827 16.9421664,2.85119827 C14.1589645,2.85119827 11.8940021,5.17358676 11.8940021,8.05204159 C11.8940021,10.8915104 14.1398621,13.1564585 16.9619287,13.1564585 C19.0328266,13.1564585 20.971212,11.7367312 21.5661288,9.79822332 L19.0328266,9.79822332 C18.5152326,10.641732 17.8240119,11.046036 16.8834181,11.046036 C15.7135905,11.046036 14.6388792,10.2008021 14.3315402,9.04824115 L21.7775681,9.04824115 C21.89311,8.49297144 21.9123456,8.24371853 21.9123456,7.89870146 Z M14.254863,7.20734634 C14.5627287,5.84519324 15.6553547,4.96163445 16.9798433,4.96163445 C18.304332,4.96163445 19.3407054,5.82714428 19.6671468,7.20734634 L14.254863,7.20734634 Z" id="Shape"></path>
                        <path d="M23.7682551,12.8300171 L23.7682551,11.6779698 C24.7088488,12.7148818 25.6864727,13.1564585 26.9923857,13.1564585 C29.679028,13.1564585 31.7703493,10.9303609 31.7703493,8.05204159 C31.7703493,5.19282355 29.621062,2.90929919 26.9540477,2.90929919 C25.7445742,2.90929919 24.7088488,3.33216641 23.96058,4.11811275 L23.96058,0.0296577351 L21.6578195,0.0296577351 L21.6578195,12.8300171 L23.7682551,12.8300171 Z M26.6659324,5.01853448 C28.2768111,5.01853448 29.4682498,6.30639847 29.4682498,8.01371666 C29.4682498,9.77846102 28.3156746,11.046036 26.7036093,11.046036 C25.0545282,11.046036 23.8067143,9.72088623 23.8067143,7.95614189 C23.8067143,6.32378754 25.0736282,5.01853448 26.6659324,5.01853448 Z" id="Shape"></path>
                    </g>
                    <path d="M33.8732704,15.15768 L33.8732704,11.1692124 C34.8270454,12.0677859 35.5213005,12.3669648 36.7382765,12.3669648 C39.3615548,12.3669648 41.4401015,10.1369137 41.4401015,7.32880946 C41.4401015,4.51951738 39.3988418,2.36495635 36.756851,2.36495635 C35.4642524,2.36495635 34.434988,2.85119827 33.685019,3.78758418 L33.685019,2.68323586 L31.6250491,2.68323586 L31.6250491,15.15768 L33.8732704,15.15768 L33.8732704,15.15768 Z M36.475601,4.42480488 C37.9755534,4.42480488 39.1920134,5.73650588 39.1920134,7.36595966 C39.1920134,8.99594076 37.9755534,10.3059284 36.4588742,10.3059284 C34.9403354,10.3059284 33.7226983,9.01398972 33.7226983,7.36595966 C33.7226983,5.71740406 34.9403354,4.42480488 36.475601,4.42480488 Z" id="Shape" fill="#16A9E1"></path>
                    <path d="M48.5579913,2.68323586 L48.5579913,3.86307357 C47.8642594,2.98188801 46.5910201,2.36495635 45.410532,2.36495635 C42.7511557,2.36495635 40.7284728,4.49975447 40.7284728,7.30904596 C40.7284728,10.2124031 42.6576197,12.3669648 45.278658,12.3669648 C46.4405787,12.3669648 47.8642594,11.730269 48.5579913,10.9059983 L48.5579913,12.0486847 L50.6173001,12.0486847 L50.6173001,2.68323586 L48.5579913,2.68323586 Z M45.7475126,10.3059284 C44.1930185,10.3059284 42.9753719,9.03375323 42.9753719,7.42168675 C42.9753719,5.71740406 44.1744416,4.42480489 45.7475126,4.42480489 C47.3398168,4.42480489 48.5021275,5.66220371 48.5021275,7.32880947 C48.5021275,9.05232893 47.3398168,10.3059284 45.7475126,10.3059284 Z" id="Shape" fill="#16A9E1"></path>
                    <polygon id="Path" fill="#16A9E1" points="54.6062931 15.15768 60 2.68323586 57.4341597 2.68323586 55.1674995 8.68636174 53.0500869 2.68323586 50.4847745 2.68323586 53.9126991 11.155237 52.1891915 15.15768"></polygon>
                </g>
                <g id="Group" transform="translate(18.779221, 16.207792)" fill-rule="nonzero">
                    <path d="M3.66230437,6.22400219 C3.36076771,6.54465554 2.86121081,6.82748452 2.13507635,6.82748452 C1.40960535,6.82748452 0.919275062,6.54465553 0.617736023,6.22400219 C0.17509401,5.76266202 0.0618064208,5.20673241 0.0618064208,4.31104466 C0.0618064208,3.4245978 0.17509401,2.8686682 0.617736023,2.4074493 C0.919275062,2.08680784 1.40960535,1.80383142 2.13507635,1.80383142 C2.86121081,1.80383142 3.36076771,2.08680785 3.66230437,2.4074493 C4.10507004,2.86866819 4.21823635,3.4245978 4.21823635,4.31104466 C4.21823635,5.20673242 4.10507004,5.76266202 3.66230437,6.22400219 Z M2.71077183,3.12370795 C2.56901966,2.98195579 2.38024268,2.90699193 2.13507635,2.90699193 C1.89057348,2.90699193 1.71114439,2.98195578 1.5699344,3.12370795 C1.31540591,3.37808663 1.2869556,3.80215414 1.2869556,4.31104466 C1.2869556,4.81994945 1.31540591,5.25323169 1.5699344,5.50827145 C1.71114439,5.6494957 1.89057348,5.72432402 2.13507635,5.72432402 C2.38024269,5.72432402 2.56901966,5.64949571 2.71077183,5.50827145 C2.96475814,5.25323169 2.99256164,4.81994945 2.99256164,4.31104466 C2.99256164,3.80215414 2.96475814,3.37808663 2.71077183,3.12370795 Z" id="Shape" fill="#16A9E1"></path>
                    <path d="M8.95088731,6.77111183 L8.95088731,3.80215415 C8.95088731,3.13292031 8.52683169,2.90699194 8.14057903,2.90699194 C7.75418606,2.90699194 7.32024513,3.13292031 7.32024513,3.80215415 L7.32024513,6.77111183 L6.09575703,6.77111183 L6.09575703,1.86074631 L7.29179482,1.86074631 L7.29179482,2.31273622 C7.61243628,1.9740339 8.06508726,1.80383143 8.51746954,1.80383143 C9.00779982,1.80383143 9.40340513,1.96481918 9.6770194,2.23830028 C10.0726223,2.63337768 10.176562,3.09578319 10.176562,3.63247721 L10.176562,6.77111183 L8.95088731,6.77111183 L8.95088731,6.77111183 Z" id="Path" fill="#16A9E1"></path>
                    <path d="M13.1654188,4.69796079 C13.1654188,5.32938217 13.5516738,5.79058679 14.2399934,5.79058679 C14.7773485,5.79058679 15.0405638,5.64067335 15.3518574,5.32938217 L16.097225,6.05485317 C15.597019,6.55453135 15.1160532,6.82748453 14.23012,6.82748453 C13.0706914,6.82748453 11.9588441,6.30001713 11.9588441,4.31104467 C11.9588441,2.70834153 12.8255393,1.80383143 14.0983768,1.80383143 C15.4651426,1.80383143 16.2377882,2.80358015 16.2377882,4.15073227 L16.2377882,4.6979608 L13.1654188,4.6979608 L13.1654188,4.69796079 Z M14.9179141,3.33039836 C14.7866964,3.0388683 14.5125566,2.82215465 14.0983768,2.82215465 C13.6835359,2.82215465 13.4104472,3.0388683 13.2787063,3.33039836 C13.2030957,3.50943746 13.1746454,3.64129956 13.1654188,3.85906665 L15.0312017,3.85906665 C15.0219869,3.64129956 14.9935366,3.50943746 14.9179141,3.33039836 Z" id="Shape" fill="#16A9E1"></path>
                    <path d="M20.4145096,6.82748453 C19.339797,6.82748453 18.2843224,6.16814076 18.2843224,4.37731934 C18.2843224,2.58635286 19.339797,1.9362357 20.4145096,1.9362357 C21.0743789,1.9362357 21.5355811,2.12448477 21.9880989,2.60492737 L21.3282296,3.24622217 C21.0273517,2.91621856 20.7915356,2.79422989 20.4145096,2.79422989 C20.046829,2.79422989 19.7360634,2.94466886 19.5280484,3.21777186 C19.3212225,3.48149843 19.2450839,3.82138974 19.2450839,4.37731935 C19.2450839,4.93377686 19.3212225,5.2816939 19.5280484,5.54542047 C19.7360634,5.8196982 20.046829,5.97014906 20.4145096,5.97014906 C20.7915356,5.97014906 21.0273517,5.84749932 21.3282296,5.51815916 L21.9880989,6.14903836 C21.5355811,6.6294952 21.0743789,6.82748453 20.4145096,6.82748453 Z" id="Path" fill="#000000"></path>
                    <path d="M25.2790226,6.77111183 C24.3646367,6.77111183 23.9685106,6.15826734 23.9685106,5.45189638 L23.9685106,0.0593761169 L24.9304564,0.0593761169 L24.9304564,5.39498149 C24.9304564,5.76266203 25.0617929,5.95091347 25.4480504,5.95091347 L25.8726315,5.95091347 L25.8726315,6.77111183 L25.2790226,6.77111183 L25.2790226,6.77111183 Z" id="Path" fill="#000000"></path>
                    <path d="M27.607211,1.04977456 L27.607211,0.0321005299 L28.6255485,0.0321005299 L28.6255485,1.04977456 L27.607211,1.04977456 Z M27.6357945,6.77111183 L27.6357945,1.99326949 L28.597084,1.99326949 L28.597084,6.77111183 L27.6357945,6.77111183 Z" id="Shape" fill="#000000"></path>
                    <path d="M32.7168999,6.82748453 C31.6423134,6.82748453 30.5861753,6.16814076 30.5861753,4.37731934 C30.5861753,2.58635286 31.6423134,1.9362357 32.7168999,1.9362357 C33.3762461,1.9362357 33.8386421,2.12448477 34.290632,2.60492737 L33.6312858,3.24622217 C33.3292094,2.91621856 33.0939307,2.79422989 32.7168999,2.79422989 C32.3486962,2.79422989 32.0377974,2.94466886 31.8304412,3.21777186 C31.6230897,3.48149843 31.5481258,3.82138974 31.5481258,4.37731935 C31.5481258,4.93377686 31.6230897,5.2816939 31.8304412,5.54542047 C32.0377974,5.8196982 32.3486962,5.97014906 32.7168999,5.97014906 C33.0939307,5.97014906 33.3292094,5.84749932 33.6312858,5.51815916 L34.290632,6.14903836 C33.8386421,6.6294952 33.3762461,6.82748453 32.7168999,6.82748453 Z" id="Path" fill="#000000"></path>
                    <polygon id="Path" fill="#000000" points="39.1173444 6.77111183 37.7788958 4.56543762 37.071985 5.36653356 37.071985 6.77111183 36.1105767 6.77111183 36.1105767 0.0593761091 37.071985 0.0593761091 37.071985 4.19828261 38.9285556 1.99326948 40.0973297 1.99326948 38.4382372 3.86775346 40.3053422 6.77111182 39.1173444 6.77111182"></polygon>
                </g>
            </g>
        </g>
    </g>
</svg>