<svg xmlns="http://www.w3.org/2000/svg" width="195" height="204">
  <g fill="none" fill-rule="evenodd">
    <path d="M-30 219h240V-21H-30z"/>
    <g fill="#D50133">
      <path d="M34.78 11.998h3.557v3.557a2.5 2.5 0 0 0 5 0v-3.557h3.556a2.5 2.5 0 1 0 0-5h-3.556V3.441a2.5 2.5 0 0 0-5 0v3.557H34.78a2.5 2.5 0 1 0 0 5M160.224 25.211h3.557v3.557a2.5 2.5 0 0 0 5 0v-3.557h3.556a2.5 2.5 0 1 0 0-5h-3.556v-3.557a2.5 2.5 0 1 0-5 0v3.557h-3.557a2.5 2.5 0 1 0 0 5M17.476 73.093h3.557v3.557a2.5 2.5 0 0 0 5 0v-3.557h3.556a2.5 2.5 0 1 0 0-5h-3.556v-3.557a2.5 2.5 0 1 0-5 0v3.557h-3.557a2.5 2.5 0 1 0 0 5M11.131 37.115a5.443 5.443 0 0 0-5.437-5.437 5.443 5.443 0 0 0-5.436 5.437 5.443 5.443 0 0 0 5.436 5.437 5.443 5.443 0 0 0 5.437-5.437M125.085 191.058c-6.106 0-11.074-4.97-11.074-11.075 0-6.106 4.968-11.072 11.074-11.072 6.108 0 11.077 4.966 11.077 11.072 0 6.106-4.969 11.075-11.077 11.075m-70.17 0c-6.109 0-11.079-4.97-11.079-11.075 0-6.106 4.97-11.072 11.08-11.072 6.106 0 11.076 4.966 11.076 11.072 0 6.106-4.97 11.075-11.077 11.075m117.193-14.075h-8.96c-1.54-37.976-32.146-68.578-70.148-70.118v-5.698a3 3 0 0 0-6 0v5.62H37.63a3 3 0 1 0 0 6h23.198a72.72 72.72 0 0 0-24.669 17.478H21.547a3 3 0 1 0 0 6h9.651a73.27 73.27 0 0 0-12.474 26.977 3 3 0 0 0 5.843 1.367c2.577-11.014 7.741-20.82 14.752-28.865a3.02 3.02 0 0 0 .954-1.087c12.381-13.602 30.192-21.87 49.752-21.87 36.047 0 65.547 28.533 67.123 64.196h-15.267c-1.424-7.986-8.405-14.072-16.796-14.072-8.39 0-15.369 6.086-16.793 14.072h-36.58c-1.425-7.986-8.407-14.072-16.797-14.072-8.392 0-15.373 6.086-16.798 14.072H7.891a3 3 0 1 0 0 6h30.226c1.425 7.987 8.406 14.075 16.798 14.075 8.391 0 15.372-6.088 16.796-14.075h36.581c1.423 7.987 8.403 14.075 16.793 14.075 8.391 0 15.372-6.088 16.796-14.075h30.227a3 3 0 1 0 0-6"/>
      <path d="M124.346 142.871a2.99 2.99 0 0 0 2.035.797 2.999 2.999 0 0 0 2.037-5.203 56.274 56.274 0 0 0-26.986-13.826 3.001 3.001 0 0 0-1.195 5.88 50.276 50.276 0 0 1 24.109 12.352M24.547 109.788a3 3 0 0 0-3-3H7.891a3 3 0 0 0 0 6h13.656a3 3 0 0 0 3-3M8.762 130.265c-1.657 0-2.959 1.343-2.959 3s1.385 3 3.042 3a3 3 0 0 0 0-6h-.083zM151.5 81.078c3.208 5.936 4.5 12.521 4.542 19.228.024 3.86 6.024 3.868 6 0-.076-12.004-4.218-22.538-11.954-31.637-6.33-7.444-14.35-13.564-19.281-22.128-3.142-5.456-4.5-11.507-4.542-17.774-.026-3.859-6.026-3.867-6 0 .079 11.463 4.453 21.235 11.955 29.743 6.553 7.433 14.5 13.722 19.28 22.568M72.825 72.322c2.685 2.784 6.925-1.46 4.243-4.243-3.6-3.733-7.036-7.615-9.54-12.189-2.887-5.272-4.083-11.076-4.137-17.052-.035-3.86-6.035-3.87-6 0 .061 6.81 1.463 13.441 4.641 19.494 2.754 5.243 6.706 9.752 10.793 13.99M115.3 81.081c1.895 3.364 7.08.344 5.181-3.028-4.767-8.465-12.063-15.142-17.64-23.035-7.647-10.822-11.188-23.03-11.254-36.257-.02-3.86-6.02-3.868-6 0 .067 13.794 3.61 26.971 11.45 38.391 5.674 8.266 13.328 15.165 18.263 23.93"/>
    </g>
  </g>
</svg>
