<svg xmlns="http://www.w3.org/2000/svg" width="195" height="204">
  <g fill="none" fill-rule="evenodd">
    <path d="M-21 222h240V-18H-21z"/>
    <g fill="#D50133">
      <path d="M99 172.281c-10.026-9.467-61.647-60.394-61.647-105.087C37.353 33.202 65.007 5.548 99 5.548c33.994 0 61.648 27.654 61.648 61.646 0 44.672-51.626 95.621-61.647 105.087M99 .548c-36.75 0-66.647 29.897-66.647 66.646 0 21.691 10.966 46.883 32.595 74.88 15.992 20.697 32.22 35.334 32.383 35.48a2.49 2.49 0 0 0 1.668.64 2.49 2.49 0 0 0 1.67-.64c.163-.146 16.392-14.783 32.383-35.48 21.629-27.997 32.595-53.189 32.595-74.88C165.647 30.445 135.75.548 99 .548M99 192.791c-28.378 0-28.378 4.012-28.378 5.33 0 1.318 0 5.33 28.378 5.33 28.377 0 28.377-4.012 28.377-5.33 0-1.318 0-5.33-28.377-5.33M185.896 116.764a2.5 2.5 0 0 0-2.5-2.5h-3.557v-3.557a2.5 2.5 0 0 0-5 0v3.557h-3.556a2.5 2.5 0 1 0 0 5h3.556v3.557a2.5 2.5 0 0 0 5 0v-3.557h3.557a2.5 2.5 0 0 0 2.5-2.5M177.34 20.867h3.556v3.557a2.5 2.5 0 0 0 5 0v-3.557h3.556a2.5 2.5 0 1 0 0-5h-3.556V12.31a2.5 2.5 0 0 0-5 0v3.557h-3.557a2.5 2.5 0 1 0 0 5M53.751 168.707h-3.557v-3.557a2.5 2.5 0 0 0-5 0v3.557h-3.556a2.5 2.5 0 1 0 0 5h3.556v3.557a2.5 2.5 0 0 0 5 0v-3.557h3.557a2.5 2.5 0 1 0 0-5M28.541 115.629h-3.556v-3.557a2.5 2.5 0 0 0-5 0v3.557h-3.557a2.5 2.5 0 1 0 0 5h3.557v3.557a2.5 2.5 0 1 0 5 0v-3.557h3.556a2.5 2.5 0 1 0 0-5M142.427 165.77a5.442 5.442 0 0 0-5.437 5.438 5.443 5.443 0 0 0 5.437 5.437 5.442 5.442 0 0 0 5.436-5.437 5.442 5.442 0 0 0-5.436-5.437M6.08 151.306a5.442 5.442 0 0 0-5.436 5.437 5.443 5.443 0 0 0 5.436 5.437 5.443 5.443 0 0 0 5.438-5.437 5.442 5.442 0 0 0-5.438-5.437M189.176 157.516a5.442 5.442 0 0 0-5.436 5.437 5.442 5.442 0 0 0 5.436 5.437 5.443 5.443 0 0 0 5.437-5.437 5.442 5.442 0 0 0-5.437-5.437M10.568 35.62a5.443 5.443 0 0 0 5.437-5.438 5.442 5.442 0 0 0-5.437-5.437 5.442 5.442 0 0 0-5.436 5.437 5.442 5.442 0 0 0 5.436 5.437"/>
      <path d="M83.866 59.501a2.5 2.5 0 0 0 2.5-2.5V33.183a2.5 2.5 0 1 0-5 0v23.818a2.5 2.5 0 0 0 2.5 2.5M74.429 59.501a2.5 2.5 0 0 0 2.5-2.5V33.183a2.5 2.5 0 1 0-5 0v23.818a2.5 2.5 0 0 0 2.5 2.5"/>
      <path d="M93.304 30.683a2.5 2.5 0 0 0-2.5 2.5v22.993c0 3.24-.958 5.778-3.016 7.985-4.274 4.597-6.159 6.933-6.062 14.128.08 6.143 1.118 34.094 1.161 35.206a3.75 3.75 0 0 1-3.745 3.745c-2.065 0-3.745-1.68-3.746-3.67.044-1.187 1.085-29.138 1.165-35.282.092-7.187-1.904-9.656-6.066-14.128-2.055-2.208-3.012-4.746-3.012-7.984V33.183a2.5 2.5 0 0 0-5 0v22.993c0 4.518 1.423 8.243 4.351 11.39 3.882 4.17 4.795 5.357 4.728 10.657-.08 6.083-1.152 34.87-1.163 35.16l-.002.112c0 4.822 3.923 8.745 8.745 8.745 4.822 0 8.745-3.923 8.745-8.745 0-.032 0-.08-.002-.111-.01-.29-1.08-29.078-1.16-35.162-.07-5.293.843-6.48 4.722-10.654 2.932-3.143 4.357-6.87 4.357-11.392V33.183a2.5 2.5 0 0 0-2.5-2.5M127.407 64.348c-4.136 4.346-6.119 6.745-6.025 13.733.08 5.926 1.167 34.167 1.218 35.484a3.75 3.75 0 0 1-3.744 3.675 3.75 3.75 0 0 1-3.745-3.746c.08-2.04 1.14-29.571 1.218-35.414.092-6.993-1.892-9.39-6.029-13.733-2.119-2.224-3.105-4.688-3.105-7.76 0-11.526 5.231-20.904 11.661-20.904s11.661 9.378 11.661 20.905c0 3.073-.987 5.537-3.11 7.76m-8.55-33.665c-9.344 0-16.662 11.379-16.662 25.905 0 4.375 1.467 8.04 4.485 11.208 3.818 4.007 4.716 5.147 4.65 10.217-.08 5.877-1.207 35.073-1.218 35.367a2.214 2.214 0 0 0 0 .163c.026 4.8 3.938 8.697 8.744 8.697 4.822 0 8.745-3.923 8.745-8.746a2.43 2.43 0 0 0-.007-.166c-.053-1.401-1.135-29.556-1.212-35.315-.069-5.066.83-6.207 4.644-10.215 3.022-3.164 4.491-6.831 4.491-11.21 0-14.526-7.318-25.905-16.66-25.905"/>
    </g>
  </g>
</svg>