<?xml version="1.0" encoding="utf-8"?>
<!-- Generator: Adobe Illustrator 22.1.0, SVG Export Plug-In . SVG Version: 6.00 Build 0)  -->
<svg version="1.1" id="Layer_1" xmlns="http://www.w3.org/2000/svg" xmlns:xlink="http://www.w3.org/1999/xlink" x="0px" y="0px"
	 viewBox="0 0 36 55" style="enable-background:new 0 0 36 55;" xml:space="preserve">
<title>Retiro</title>
<desc>Created with Sketch.</desc>
<g id="_FEEDBACK-POST-COMPRA">
	<g id="Feedback-Rating-v.2" transform="translate(-142.000000, -191.000000)">
		<g id="Group-2" transform="translate(16.000000, 121.000000)">
			<g id="Servicio" transform="translate(0.000000, 58.500000)">
				<path id="Retiro" d="M145.5,29.3c-0.6,0-1-0.5-1-1v-7.8c0-0.6,0.5-1,1-1c0.6,0,1,0.5,1,1v7.8C146.6,28.8,146.1,29.3,145.5,29.3z
					 M142.5,29.3c-0.6,0-1-0.5-1-1v-7.8c0-0.6,0.5-1,1-1c0.6,0,1,0.5,1,1v7.8C143.5,28.8,143,29.3,142.5,29.3z M146.2,48.9
					c-0.4,0.4-1.1,0.9-2.3,0.9c-1.2,0-1.9-0.5-2.3-0.9c-0.9-0.9-0.8-2.1-0.8-2.3c0-0.1,0.4-9.6,0.4-11.5c0-1.6-0.2-1.9-1.4-3.2
					c-1-1.1-1.6-2.5-1.6-3.9v-7.5c0-0.6,0.5-1,1-1c0.6,0,1,0.5,1,1V28c0,0.9,0.4,1.8,1,2.5c1.4,1.5,2,2.3,2,4.6
					c0,1.9-0.4,11.2-0.4,11.6c0,0.1,0,0.5,0.3,0.7c0.2,0.2,0.4,0.2,0.8,0.2s0.6-0.1,0.8-0.2c0.2-0.2,0.3-0.6,0.3-0.8
					c0-0.4-0.4-9.7-0.4-11.6c0-2.4,0.6-3.2,2-4.6c0.7-0.7,1-1.6,1-2.5v-7.5c0-0.6,0.5-1,1-1c0.6,0,1,0.5,1,1V28
					c0,1.4-0.6,2.8-1.6,3.9c-1.2,1.3-1.4,1.6-1.4,3.2c0,1.9,0.4,11.4,0.4,11.5C147.1,46.8,147.1,48,146.2,48.9z M152,63.9
					c0.6,0,1,0.5,1,1c0,0.6-0.5,1-1,1h-16c-0.6,0-1-0.5-1-1c0-0.6,0.5-1,1-1H152z M144,14.1c8.8,0,15.9,7.1,15.9,15.9
					c0,11.3-12.8,24.3-15.9,27.3c-3.1-3-15.9-15.9-15.9-27.3C128.1,21.2,135.2,14.1,144,14.1 M143.3,59.4c0.2,0.2,0.4,0.3,0.7,0.3
					c0.2,0,0.5-0.1,0.7-0.3C145.4,58.8,162,43.8,162,30c0-9.9-8.1-18-18-18s-18,8.1-18,18C126,43.8,142.6,58.8,143.3,59.4"/>
			</g>
		</g>
	</g>
</g>
</svg>
