<svg xmlns="http://www.w3.org/2000/svg" viewBox="0 0 262 160"><path d="M64.9 80.4c.3-.4.6-.7 1-1-.3.3-.7.6-1 1m45.2 2.5c1.5 1.8 2.8 3.8 3.8 6 7.3 15.2.9 33.5-14.3 40.8l-3.1 1.3c-3.3 1.2-6.7 1.7-10.1 1.7a.896.896 0 1 1 0-1.8c3.2 0 6.4-.5 9.5-1.6l3-1.2c14.3-6.8 20.3-24.1 13.4-38.4-1.2-2.4-2.6-4.6-4.3-6.5-2.3-.1-4.3-1.2-5.5-3-1.6 2-4 3.4-6.8 3.5-4 .2-7.5-2.2-8.9-5.7-.8 3.7-4 6.5-7.9 6.7-3 .1-5.8-1.3-7.4-3.7-.1-.3-.3-.6-.5-.8-.2-.3-.3-.6-.4-1 0 .1-.1.2-.2.4-.3-.2-.7-.4-1-.6-1.8 1.4-3.5 3-5 4.7v24.9H64c-.5 2.3-2.5 4-4.9 4.1-.6 0-1.1 0-1.6-.2V147c0 .2-.1.5-.3.6l-11.7 11.7c-.2.2-.4.3-.6.3s-.5-.1-.6-.3c-.4-.4-.4-.9 0-1.3l11.5-11.5v-34.9c-1-.8-1.8-1.9-2-3.2h-.1l-3.5-28.9c-.5-1.2-.8-2.5-.9-3.8-.3-6 4.4-11.1 10.4-11.4h.5c1-4.3 4.8-7.5 9.4-7.7 3.4-.2 6.5 1.4 8.5 3.9 1.5-2.7 4.3-4.5 7.6-4.7 2.8-.1 5.3 1 7 2.8 1.6-2 4-3.3 6.8-3.4 4.4-.2 8.2 2.7 9.3 6.8 2.3.3 4 2.2 4.1 4.6.1 1.3-.4 2.6-1.3 3.5 2 1.2 3.3 3.2 3.4 5.7.3 3.3-1.9 6.2-4.9 7.1zM92.4 111c-.6 0-1 .5-1 1.1s.5 1.1 1.1 1.1h3.7L94.4 99c-.1-.5.3-.9.8-1s1 .3 1 .8l2 15.2c0 .3 0 .5-.2.7s-.4.3-.7.3h-4.7c-1.6 0-2.9-1.3-2.9-2.9s1.2-2.8 2.8-2.9a.896.896 0 0 1 .9.9c-.1.5-.5.9-1 .9zm-7.2-14c0 .9-.7 1.6-1.6 1.6S82 97.9 82 97s.7-1.6 1.6-1.6 1.6.7 1.6 1.6zm-1.8 0c0 .3.5.3.5 0 0-.1-.1-.2-.2-.2-.2-.1-.3 0-.3.2zm16.6 0c0-.9.7-1.6 1.6-1.6s1.6.7 1.6 1.6-.7 1.6-1.6 1.6-1.6-.8-1.6-1.6zm1.8 0c0-.1-.1-.2-.2-.2s-.2.1-.2.2c-.1.2.4.2.4 0zm-18.6 23.2c.7-1.2 2.8-4 6-4 .3 0 .7 0 1 .1 3.7.6 4.8 4.8 5 5.7.1.3 0 .6-.2.8s-.4.3-.7.3h-.1l-10.3-1.5c-.3 0-.6-.2-.7-.5a1.387 1.387 0 0 1 0-.9zm9.8.9c-.5-1.2-1.4-2.7-3.1-3-.2 0-.4-.1-.7-.1-1.6 0-2.8 1-3.6 2l7.4 1.1zm3.2 21.6l8.2 8.2c.4.4.4.9 0 1.3-.2.2-.4.3-.6.3s-.5-.1-.6-.3l-8.5-8.5c-.2-.2-.3-.4-.3-.6v-9.2a.896.896 0 1 1 1.8 0v8.8zm9.3-48c-.1-.1-2.3-2.8-6-1.6-.5.1-1-.1-1.1-.6s.1-1 .6-1.1c4.9-1.5 7.8 2.1 7.9 2.2.3.4.2 1-.1 1.3-.2.1-.4.2-.6.2-.2-.1-.5-.2-.7-.4zm-19.4-3.3c.5.2.7.7.5 1.2s-.7.7-1.2.5c-.2-.1-3.4-1.3-6 1.5-.2.2-.4.3-.7.3-.2 0-.5-.1-.6-.3-.4-.3-.4-.9 0-1.3 3.5-3.6 7.8-1.9 8-1.9zm7 52.4c.3-.4.9-.5 1.3-.1.4.3.5.9.1 1.3l-11.6 14.4c-.2.2-.4.3-.7.3-.1 0-.3 0-.4-.1l-23.2-11.7c-.4-.2-.6-.8-.4-1.2s.8-.6 1.2-.4L82 157.7l11.1-13.9zm64-60.2c.6 2.2.2 4.5-1.2 6.3-2.4 3.1-6.9 3.7-10 1.3-1-.8-1.8-1.9-2.3-3.1-1.3-.1-2.5-.6-3.6-1.4-3.1-2.4-3.7-6.9-1.3-10 1.8-2.3 4.8-3.3 7.6-2.5 2.4-2.8 6.7-3.3 9.7-1 3.1 2.4 3.7 6.9 1.3 10 0 .2-.1.3-.2.4zM147 89.8c2.3 1.8 5.7 1.3 7.4-1 1.1-1.5 1.4-3.4.7-5.1-.1-.3 0-.7.2-1 .2-.2.4-.4.5-.6 1.8-2.3 1.3-5.7-1-7.4-2.3-1.8-5.7-1.3-7.4 1l-.1.1c-.2.4-.7.5-1.1.3-2.2-.9-4.7-.2-6.2 1.7-1.8 2.3-1.3 5.7 1 7.4.9.7 2 1.1 3.1 1.1.2 0 .4.1.5.2.2.1.3.3.3.5.6 1.2 1.2 2.1 2.1 2.8zm-19.8-8.9c3.4 0 6.1 2.7 6.1 6.1s-2.7 6.1-6.1 6.1-6.1-2.7-6.1-6.1 2.7-6.1 6.1-6.1zm0 10.4c2.4 0 4.3-1.9 4.3-4.3s-1.9-4.3-4.3-4.3-4.3 1.9-4.3 4.3 1.9 4.3 4.3 4.3zm108.3-77.8c14.2 0 25.7 11.5 25.7 25.7 0 9.5-5.3 18.3-13.7 22.7 2.5 4 3.8 8.6 3.8 13.4 0 14.2-11.5 25.7-25.7 25.7-6.6 0-12.8-2.4-17.5-6.9-4.8 4.5-11 6.9-17.5 6.9-14.2 0-25.7-11.5-25.7-25.7 0-1.8.2-3.6.5-5.3-12.6-1.8-22.1-12.5-22.1-25.4 0-14.2 11.5-25.7 25.7-25.7 2.3 0 4.6.3 6.8.9 2.7-11.5 13-19.8 25-19.8 10.4 0 19.9 6.4 23.8 16 3.4-1.6 7.1-2.5 10.9-2.5zm10.4 47.3c8.2-3.9 13.6-12.4 13.6-21.6 0-13.2-10.7-23.9-23.9-23.9-3.8 0-7.6.9-11 2.7-.2.1-.5.1-.7 0s-.4-.3-.5-.5C220 8.1 211 1.8 200.9 1.8c-11.4 0-21.3 8.1-23.5 19.3 0 .3-.2.5-.4.6s-.5.2-.7.1c-2.3-.7-4.7-1.1-7.2-1.1-13.2 0-23.9 10.7-23.9 23.9 0 12.3 9.2 22.5 21.4 23.8.3 0 .5.2.7.4s.2.5.1.7c-.5 1.9-.7 3.8-.7 5.8 0 13.2 10.7 23.9 23.9 23.9 6.4 0 12.4-2.5 16.9-7 .2-.2.4-.3.6-.3s.5.1.6.3c4.5 4.5 10.5 7 16.9 7 13.2 0 23.9-10.7 23.9-23.9 0-4.7-1.4-9.3-4-13.2-.1-.2-.2-.5-.1-.7 0-.3.2-.5.5-.6zM180 44.9a.896.896 0 0 1-.9-.9v-7a.896.896 0 1 1 1.8 0v7a.896.896 0 0 1-.9.9zm-2.8 0a.896.896 0 0 1-.9-.9v-7a.896.896 0 1 1 1.8 0v7a.896.896 0 0 1-.9.9zm5.6-8.8a.896.896 0 0 1 .9.9v6.8c0 1.3-.5 2.6-1.4 3.5-1.1 1.2-1.3 1.5-1.3 2.9 0 1.7.4 15.1.4 15.2s0 1.2-.7 2c-.3.4-1 .8-2 .8-1.1 0-1.7-.4-2-.8-.8-.8-.7-1.9-.7-2s.4-13.4.4-15.2c0-1.4-.2-1.7-1.3-2.9-.9-1-1.4-2.3-1.4-3.5V37a.896.896 0 1 1 1.8 0v6.8c0 .8.3 1.7 1 2.3 1.2 1.3 1.8 2 1.8 4.2 0 1.8-.4 14.7-.4 15.2 0 .1 0 .5.2.7.3.3 1.1.3 1.4 0 .2-.2.2-.7.2-.7 0-.6-.4-13.5-.4-15.3 0-2.1.6-2.9 1.8-4.2.4-.5 1-1.2 1-2.3V37c-.2-.5.2-.9.7-.9zm52.4 7.6s0 .1 0 0v.5c-.1 1.1-.6 2.2-1.4 3.1-1.1 1.2-1.3 1.5-1.3 2.9 0 1.7.4 15.1.4 15.2s0 1.2-.7 2c-.3.4-1 .8-2 .8s-1.7-.4-2-.8c-.8-.8-.7-1.9-.7-2s.4-13.4.4-15.2c0-1.4-.2-1.7-1.3-2.9-.8-.9-1.3-1.9-1.4-3.1v-.5c.1-4.3 2.3-7.7 5.1-7.7 2.6.1 4.8 3.4 4.9 7.7zm-2.8 2.4c.4-.5.9-1.2.9-2.3-.1-3.6-1.7-5.9-3.3-5.9s-3.2 2.4-3.3 6c0 .8.3 1.6.9 2.3 1.2 1.3 1.8 2 1.8 4.2 0 1.8-.4 14.7-.4 15.2 0 .1 0 .5.2.7.3.3 1.1.3 1.4 0 .2-.2.2-.6.2-.7 0-.6-.4-13.5-.4-15.2.2-2.3.8-3 2-4.3zm-27.9-14.4c10.9 0 19.8 8.9 19.8 19.8s-8.9 19.8-19.8 19.8-19.8-8.9-19.8-19.8 8.9-19.8 19.8-19.8zm0 37.8c9.9 0 18-8.1 18-18s-8.1-18-18-18-18 8.1-18 18c0 10 8.1 18 18 18zm5.3-26.5c1.9 0 3.8.8 5 2.3 1.2 1.3 1.7 3.1 1.6 4.8-.1 1.8-.9 3.4-2.3 4.5l-8.8 7.6c-.1.3-.3.5-.6.6h-.2c-.4 0-.7-.3-.9-.6l-8.8-7.6c-2.8-2.4-3.1-6.6-.7-9.4 1.3-1.5 3.1-2.3 5-2.3 1.6 0 3.1.6 4.3 1.6l.9.8.9-.8c1.5-.9 3-1.5 4.6-1.5zm3.2 10.3c1-.8 1.6-2 1.7-3.3s-.3-2.5-1.2-3.5c-.9-1.1-2.2-1.7-3.6-1.7-1.2 0-2.3.4-3.2 1.2l-1 .9 1 3.1c.1.3 0 .7-.3 1l-2.2 1.9 2.1 2.4c.3.3.3.8 0 1.1l-1.7 2.3.4 1.5 8-6.9zm-17.4-6.8c-1.7 2-1.5 5.1.5 6.8l6.7 5.8-.1-.4c-.1-.3 0-.6.1-.8l1.5-2.1-2.2-2.5c-.2-.2-.2-.4-.2-.7s.1-.5.3-.6l2.4-2.1-.9-2.8-1.4-1.2c-.9-.8-2-1.2-3.2-1.2-1.2.1-2.6.7-3.5 1.8z"/></svg>